HIERARCHY
ROOT Pelvis
{
	OFFSET 0.000000 0.000000 0.000000
	CHANNELS 6 Xposition Yposition Zposition Xrotation Yrotation Zrotation
	JOINT LeftUpLeg_virtual
	{
		OFFSET 0.000000 0.000000 0.000000
		CHANNELS 3 Xrotation Yrotation Zrotation
		JOINT LeftUpLeg
		{
			OFFSET 18.735201 -5.666702 -4.541200
			CHANNELS 3 Xrotation Yrotation Zrotation
			JOINT LeftLeg
			{
				OFFSET -0.021200 -31.938179 0.493100
				CHANNELS 3 Xrotation Yrotation Zrotation
				JOINT LeftFoot
				{
					OFFSET 0.021200 -31.938179 -4.336299
					CHANNELS 3 Xrotation Yrotation Zrotation
					JOINT LeftToeBase
					{
						OFFSET 0.943001 -26.722000 15.023500
						CHANNELS 3 Xrotation Yrotation Zrotation
						End Site
						{
							OFFSET 0 0 0
						}
					}
				}
			}
		}
	}
	JOINT RightUpLeg_virtual
	{
		OFFSET 0.000000 0.000000 0.000000
		CHANNELS 3 Xrotation Yrotation Zrotation
		JOINT RightUpLeg
		{
			OFFSET -18.735201 -5.666702 -4.541200
			CHANNELS 3 Xrotation Yrotation Zrotation
			JOINT RightLeg
			{
				OFFSET 0.018946 -31.938133 0.493100
				CHANNELS 3 Xrotation Yrotation Zrotation
				JOINT RightFoot
				{
					OFFSET -0.018946 -31.938126 -4.336299
					CHANNELS 3 Xrotation Yrotation Zrotation
					JOINT RightToeBase
					{
						OFFSET -0.943001 -26.722004 15.023500
						CHANNELS 3 Xrotation Yrotation Zrotation
						End Site
						{
							OFFSET 0 0 0
						}
					}
				}
			}
		}
	}
	JOINT Hips_virtual
	{
		OFFSET 0.000000 0.000000 0.000000
		CHANNELS 3 Xrotation Yrotation Zrotation
		JOINT Hips
		{
			OFFSET -0.000000 -0.000000 -0.000000
			CHANNELS 3 Xrotation Yrotation Zrotation
			JOINT Spine
			{
				OFFSET 0.000000 10.199997 -0.299500
				CHANNELS 3 Xrotation Yrotation Zrotation
				JOINT Spine1
				{
					OFFSET 0.000000 11.900002 -1.516600
					CHANNELS 3 Xrotation Yrotation Zrotation
					JOINT Spine2
					{
						OFFSET 0.000000 13.600006 -2.842500
						CHANNELS 3 Xrotation Yrotation Zrotation
						JOINT Neck_virtual
						{
							OFFSET 0.000000 0.000000 0.000000
							CHANNELS 3 Xrotation Yrotation Zrotation
							JOINT Neck
							{
								OFFSET 0.000000 9.624100 -2.890100
								CHANNELS 3 Xrotation Yrotation Zrotation
								JOINT Head
								{
									OFFSET 0.000000 14.068802 -1.351900
									CHANNELS 3 Xrotation Yrotation Zrotation
									End Site
									{
										OFFSET 0 0 0
									}
								}
							}
						}
						JOINT LeftShoulder_virtual
						{
							OFFSET 0.000000 0.000000 0.000000
							CHANNELS 3 Xrotation Yrotation Zrotation
							JOINT LeftShoulder
							{
								OFFSET 15.263000 10.923401 -0.547700
								CHANNELS 3 Xrotation Yrotation Zrotation
								JOINT LeftArm
								{
									OFFSET 25.438599 -2.830597 -13.032500
									CHANNELS 3 Xrotation Yrotation Zrotation
									JOINT LeftForeArm
									{
										OFFSET 29.960503 0.000000 0.000000
										CHANNELS 3 Xrotation Yrotation Zrotation
										JOINT LeftHand
										{
											OFFSET 27.849251 0.000000 0.000000
											CHANNELS 3 Xrotation Yrotation Zrotation
											End Site
											{
												OFFSET 0 0 0
											}
										}
									}
								}
							}
						}
						JOINT RightShoulder_virtual
						{
							OFFSET 0.000000 0.000000 0.000000
							CHANNELS 3 Xrotation Yrotation Zrotation
							JOINT RightShoulder
							{
								OFFSET -15.263000 10.923401 -0.547700
								CHANNELS 3 Xrotation Yrotation Zrotation
								JOINT RightArm
								{
									OFFSET -25.438599 -2.830597 -13.032500
									CHANNELS 3 Xrotation Yrotation Zrotation
									JOINT RightForeArm
									{
										OFFSET -29.960503 0.000000 0.000000
										CHANNELS 3 Xrotation Yrotation Zrotation
										JOINT RightHand
										{
											OFFSET -27.849251 0.000000 0.000000
											CHANNELS 3 Xrotation Yrotation Zrotation
											End Site
											{
												OFFSET 0 0 0
											}
										}
									}
								}
							}
						}
					}
				}
			}
		}
	}
}
MOTION
Frames: 9
Frame Time: 0.03333333
-3.003025 79.160599 3.424842 0.000000 0.000000 0.000000 -0.704543 -40.320560 3.069050 -45.058526 -2.047581 18.259134 51.194682 -10.110010 -2.546002 -5.589878 -8.170575 -16.382455 0.000000 0.000000 0.000000 6.150764 -43.459503 -4.506699 -24.767174 -15.636641 -25.668022 47.202802 0.980199 0.197946 -11.867577 -3.046024 12.720800 0.000000 0.000000 0.000000 -3.032014 -23.706227 0.418343 -3.020695 -17.520866 -1.301622 9.381148 3.815440 -2.308874 3.257958 2.287648 -1.031283 0.000000 0.000000 0.000000 3.754559 2.568218 -0.022323 0.062673 2.340226 0.002003 0.000000 0.000000 0.000000 1.863674 1.759170 -0.732798 0.831013 2.921057 -7.493750 -48.748658 -16.711151 -59.066151 -46.653590 -79.308701 -42.803518 0.000000 0.000000 0.000000 2.622619 1.432671 -1.626967 2.137943 12.399784 -1.609254 -34.517321 35.821139 66.846788 -170.411294 65.847197 172.383593 0.000000 0.000000 0.000000 
-2.921583 78.964989 3.591545 0.000000 0.000000 0.000000 -0.807804 -40.340426 3.099867 -45.230541 -2.093265 18.332906 51.572457 -10.284551 -2.638262 -5.429180 -8.266003 -16.674117 0.000000 0.000000 0.000000 6.061384 -43.627529 -4.674985 -24.833665 -15.631470 -25.829704 47.338750 1.136407 0.239905 -11.887616 -2.944195 12.883513 0.000000 0.000000 0.000000 -3.071018 -23.954807 0.449305 -2.902773 -17.241768 -1.290486 9.420836 3.847411 -2.329402 3.259238 2.322338 -1.008458 0.000000 0.000000 0.000000 3.737051 2.560635 -0.025646 0.060744 2.364313 -0.007338 0.000000 0.000000 0.000000 1.825704 1.739998 -0.765210 0.819668 2.979086 -7.600431 -48.896867 -16.827175 -58.884236 -46.779679 -79.395198 -42.932961 0.000000 0.000000 0.000000 2.572541 1.437007 -1.617370 2.141059 12.368551 -1.589475 -34.511348 35.694883 66.915001 -170.288869 65.634716 172.289978 0.000000 0.000000 0.000000 
-2.773657 78.593987 3.905398 0.000000 0.000000 0.000000 -1.017773 -40.420271 3.154037 -45.574359 -2.193515 18.469086 52.336724 -10.633733 -2.808696 -5.094392 -8.466466 -17.239847 0.000000 0.000000 0.000000 5.870934 -43.931565 -5.008198 -24.983951 -15.609680 -26.144168 47.618750 1.451245 0.313902 -11.909943 -2.733133 13.198343 0.000000 0.000000 0.000000 -3.154971 -24.452456 0.504229 -2.667481 -16.705104 -1.278115 9.488343 3.915744 -2.360888 3.260627 2.386427 -0.964595 0.000000 0.000000 0.000000 3.699187 2.550163 -0.032595 0.057582 2.409849 -0.025823 0.000000 0.000000 0.000000 1.754413 1.700955 -0.827663 0.797425 3.078385 -7.804528 -49.137156 -17.024385 -58.523287 -46.970193 -79.548085 -43.135619 0.000000 0.000000 0.000000 2.478766 1.446459 -1.601095 2.145612 12.316955 -1.568473 -34.491117 35.467916 67.031087 -170.081505 65.259186 172.142105 0.000000 0.000000 0.000000 
-2.581991 78.080940 4.334865 0.000000 0.000000 0.000000 -1.339969 -40.627485 3.218607 -46.088467 -2.363024 18.648255 53.499547 -11.154886 -3.031897 -4.564005 -8.786889 -18.047079 0.000000 0.000000 0.000000 5.563266 -44.317443 -5.499351 -25.242234 -15.552739 -26.595462 48.052901 1.929785 0.402812 -11.906615 -2.399485 13.648433 0.000000 0.000000 0.000000 -3.290137 -25.193197 0.572288 -2.316567 -15.948080 -1.280521 9.566969 4.025193 -2.389563 3.259594 2.470625 -0.903305 0.000000 0.000000 0.000000 3.638069 2.544143 -0.043662 0.054660 2.472489 -0.053108 0.000000 0.000000 0.000000 1.657875 1.641946 -0.915056 0.765967 3.194365 -8.089731 -49.382855 -17.242469 -57.995778 -47.124566 -79.732241 -43.319799 0.000000 0.000000 0.000000 2.351387 1.462158 -1.583445 2.148637 12.262550 -1.576338 -34.443619 35.182639 67.161605 -169.848527 64.797643 171.999313 0.000000 0.000000 0.000000 
-2.367175 77.461838 4.849116 0.000000 0.000000 0.000000 -1.778261 -41.034332 3.278660 -46.766995 -2.616618 18.848426 55.066238 -11.837268 -3.275502 -3.817360 -9.240244 -19.051208 0.000000 0.000000 0.000000 5.128540 -44.725544 -6.137528 -25.624271 -15.442452 -27.164028 48.643313 2.578475 0.486771 -11.851156 -1.927656 14.216245 0.000000 0.000000 0.000000 -3.475721 -26.154522 0.643534 -1.854543 -15.016758 -1.313362 9.644663 4.174930 -2.404770 3.252462 2.563617 -0.829847 0.000000 0.000000 0.000000 3.554291 2.549574 -0.059204 0.054126 2.547616 -0.088724 0.000000 0.000000 0.000000 1.546064 1.565149 -1.019247 0.729120 3.307442 -8.435723 -49.552585 -17.410917 -57.331672 -47.130641 -79.904136 -43.382428 0.000000 0.000000 0.000000 2.200753 1.484886 -1.570894 2.147030 12.223739 -1.644049 -34.355124 34.884703 67.271080 -169.651053 64.324324 171.916763 0.000000 0.000000 0.000000 
-2.140566 76.766563 5.431169 0.000000 0.000000 0.000000 -2.329255 -41.693380 3.321271 -47.594954 -2.962540 19.050741 57.021534 -12.655816 -3.504878 -2.845132 -9.829426 -20.196567 0.000000 0.000000 0.000000 4.572329 -45.109472 -6.907887 -26.124562 -15.268859 -27.831033 49.374461 3.401058 0.547933 -11.729574 -1.305820 14.886781 0.000000 0.000000 0.000000 -3.700278 -27.290294 0.712388 -1.291304 -13.963763 -1.385306 9.720088 4.354078 -2.403949 3.235531 2.653918 -0.750475 0.000000 0.000000 0.000000 3.453512 2.570631 -0.078985 0.058313 2.631616 -0.132040 0.000000 0.000000 0.000000 1.429745 1.475792 -1.129291 0.692879 3.412541 -8.820037 -49.598214 -17.465026 -56.579788 -46.877665 -80.016172 -43.218906 0.000000 0.000000 0.000000 2.035340 1.514269 -1.569283 2.139556 12.214867 -1.793632 -34.212247 34.610406 67.331971 -169.536661 63.889337 171.929590 0.000000 0.000000 0.000000 
-1.903353 76.015259 6.085951 0.000000 0.000000 0.000000 -2.976906 -42.618369 3.339417 -48.544087 -3.397342 19.243981 59.315029 -13.566402 -3.687237 -1.658670 -10.540847 -21.415206 0.000000 0.000000 0.000000 3.919064 -45.449148 -7.792226 -26.712004 -15.035389 -28.581917 50.208133 4.392562 0.574319 -11.545989 -0.532563 15.647217 0.000000 0.000000 0.000000 -3.944884 -28.533776 0.777926 -0.644132 -12.848826 -1.494605 9.801862 4.541480 -2.392801 3.206798 2.730983 -0.671384 0.000000 0.000000 0.000000 3.345006 2.607832 -0.101916 0.068979 2.722575 -0.182216 0.000000 0.000000 0.000000 1.319596 1.381446 -1.232480 0.664031 3.520468 -9.218040 -49.513708 -17.358682 -55.798127 -46.250944 -80.017982 -42.715296 0.000000 0.000000 0.000000 1.861899 1.548141 -1.582045 2.128875 12.243340 -2.032813 -34.000432 34.379450 67.329122 -169.532221 63.514421 172.049132 0.000000 0.000000 0.000000 
-1.651080 75.220116 6.839389 0.000000 0.000000 0.000000 -3.691125 -43.777445 3.335070 -49.573113 -3.904951 19.426678 61.850921 -14.505300 -3.795365 -0.295495 -11.341551 -22.625886 0.000000 0.000000 0.000000 3.208961 -45.754027 -8.769570 -27.335250 -14.759200 -29.407523 51.086468 5.534101 0.561823 -11.320835 0.378655 16.483980 0.000000 0.000000 0.000000 -4.191212 -29.811959 0.840767 0.062014 -11.737646 -1.631489 9.901881 4.709858 -2.381346 3.167151 2.785431 -0.597658 0.000000 0.000000 0.000000 3.237959 2.658760 -0.126237 0.086496 2.820154 -0.238183 0.000000 0.000000 0.000000 1.224768 1.290185 -1.316012 0.647550 3.651148 -9.601585 -49.327548 -17.071066 -55.035561 -45.132753 -79.858203 -41.747124 0.000000 0.000000 0.000000 1.686781 1.582254 -1.609216 2.122104 12.308167 -2.354741 -33.702527 34.194912 67.257078 -169.643662 63.202800 172.267616 0.000000 0.000000 0.000000 
-1.380152 74.390511 7.728563 0.000000 0.000000 0.000000 -4.432240 -45.099408 3.321120 -50.633715 -4.460744 19.607093 64.487655 -15.394464 -3.811027 1.181354 -12.180667 -23.736734 0.000000 0.000000 0.000000 2.490885 -46.054740 -9.815655 -27.934545 -14.466887 -30.301520 51.942605 6.791045 0.514005 -11.082603 1.399269 17.379387 0.000000 0.000000 0.000000 -4.429246 -31.065606 0.898641 0.796560 -10.696425 -1.785441 10.027174 4.831864 -2.378582 3.119896 2.808697 -0.532706 0.000000 0.000000 0.000000 3.137821 2.719471 -0.150004 0.109417 2.924828 -0.298631 0.000000 0.000000 0.000000 1.150648 1.208410 -1.368948 0.643827 3.823561 -9.938705 -49.087169 -16.606224 -54.314347 -43.432394 -79.487378 -40.208890 0.000000 0.000000 0.000000 1.516776 1.610466 -1.647542 2.128679 12.399412 -2.740821 -33.300195 34.048370 67.112134 -169.861559 62.952774 172.566314 0.000000 0.000000 0.000000 
